<?xml version="1.0" encoding="utf-8"?>
<!-- Generator: Adobe Illustrator 22.0.1, SVG Export Plug-In . SVG Version: 6.00 Build 0)  -->
<svg version="1.1" id="Layer_1" xmlns="http://www.w3.org/2000/svg" xmlns:xlink="http://www.w3.org/1999/xlink" x="0px" y="0px"
	 viewBox="0 0 285.5 75" enable-background="new 0 0 285.5 75" xml:space="preserve">
<path fill="#1E91D6" d="M37.1,37.4c-3.7,0-6.7-3-6.7-6.7s3-6.7,6.7-6.7s6.7,3,6.7,6.7S40.8,37.4,37.1,37.4z M37.1,35.4
	c2.7,0,4.8-2.2,4.8-4.8s-2.2-4.8-4.8-4.8s-4.8,2.2-4.8,4.8S34.4,35.4,37.1,35.4z"/>
<path fill="#1E91D6" d="M21,37.4c-3.7,0-6.7-3-6.7-6.7s3-6.7,6.7-6.7s6.7,3,6.7,6.7S24.7,37.4,21,37.4z M21,35.4
	c2.7,0,4.8-2.2,4.8-4.8s-2.2-4.8-4.8-4.8s-4.8,2.2-4.8,4.8S18.3,35.4,21,35.4z"/>
<path fill="#EA6100" d="M48.9,29.8l-0.1-2.3l-0.4-2.2l-0.6-2.2L46.9,21l-1.2-2l-1.3-1.8l-1.5-1.7l-1.8-1.5l-1.8-1.3l-2-1.1l-2.1-0.8
	L33,10.3L30.7,10l-2.3-0.2l-2.3,0.1L24,10.2l-2.2,0.6l-2.1,0.9l-2,1.2L16,14.2l-1.7,1.5l-1.5,1.8l-1.4,2l-1.1,2l-0.8,2.1l-0.6,2.2
	L8.6,28l-0.1,2.3l0.1,2.3L9,34.8l0.6,2.2l0.9,2.1l1.2,2l1.3,1.8l1.5,1.7l1.8,1.5l1.8,1.3l2,1.1l2.1,0.8l2.2,0.6l2.3,0.3l2.3,0.1
	l2.3-0.1l2.2-0.4l2.2-0.6l2.1-0.9l2-1.2l1.8-1.3l1.7-1.5l1.5-1.8l1.3-1.8l1.1-2l0.8-2.1l0.6-2.2l0.3-2.3L48.9,29.8 M7.6,48.4L6,46.2
	L4.5,44l-1.2-2.4l-1-2.5l-0.7-2.6l-0.5-2.7l-0.2-2.7L1,28.4l0.3-2.7l0.6-2.7l0.8-2.6l1-2.5L5,15.6l1.5-2.3l1.7-2.1l1.9-1.9l2.1-1.8
	L14.4,6l2.4-1.3l2.5-1.1l2.6-0.8l2.7-0.6l2.7-0.3l2.7,0l2.7,0.2l2.7,0.5l2.6,0.7l2.5,1l2.4,1.3l2.3,1.4l2.1,1.7l1.9,1.9l1.8,2.1
	l1.6,2.2l1.3,2.3l1.1,2.5l0.9,2.6l0.6,2.7l0.4,2.7l0.1,2.7l-0.1,2.7l-0.4,2.7l-0.7,2.6L54.9,41l-1.2,2.4l-1.4,2.3l-1.6,2.2
	L29.3,73.1L7.6,48.4"/>
<g>
	<path fill="#1E91D6" d="M81.4,48.6l-12.9-32h-0.2c0.1,2,0.2,4,0.2,6v25.9h-2.3V13.9H70l12.3,30.4h0.1l12.3-30.4h3.6v34.6h-2.4V22.3
		c0-1.8,0.1-3.7,0.3-5.7h-0.2L83,48.6H81.4z"/>
	<path fill="#1E91D6" d="M123.1,48.6l-0.6-4.1h-0.2c-1.3,1.7-2.6,2.8-4,3.5c-1.4,0.7-3,1-4.8,1c-2.5,0-4.5-0.6-5.9-1.9
		c-1.4-1.3-2.1-3.1-2.1-5.4c0-2.5,1-4.5,3.1-5.8c2.1-1.4,5.1-2.1,9.1-2.2l4.9-0.1v-1.7c0-2.4-0.5-4.3-1.5-5.5
		c-1-1.2-2.6-1.9-4.8-1.9c-2.4,0-4.9,0.7-7.4,2l-0.9-2c2.8-1.3,5.6-2,8.4-2c2.8,0,4.9,0.7,6.3,2.2c1.4,1.5,2.1,3.8,2.1,6.9v17.1
		H123.1z M113.6,46.9c2.7,0,4.9-0.8,6.5-2.4c1.6-1.6,2.4-3.8,2.4-6.5v-2.5l-4.5,0.2c-3.6,0.2-6.2,0.7-7.7,1.7
		c-1.5,1-2.3,2.4-2.3,4.5c0,1.6,0.5,2.9,1.5,3.8C110.4,46.5,111.8,46.9,113.6,46.9z"/>
	<path fill="#1E91D6" d="M139.9,46.9c1.5,0,2.8-0.1,3.9-0.4v1.9c-1.1,0.4-2.4,0.6-3.9,0.6c-2.3,0-4-0.6-5-1.8
		c-1.1-1.2-1.6-3.1-1.6-5.7V24.9h-3.8v-1.4l3.8-1.1l1.2-5.8h1.2v6.2h7.6v2h-7.6v16.3c0,2,0.3,3.4,1,4.4
		C137.4,46.5,138.5,46.9,139.9,46.9z"/>
	<path fill="#1E91D6" d="M159.8,49c-3.7,0-6.7-1.2-8.7-3.5c-2.1-2.3-3.1-5.5-3.1-9.7c0-4.1,1-7.4,3-9.9c2-2.5,4.7-3.7,8.2-3.7
		c3,0,5.4,1.1,7.2,3.2c1.8,2.1,2.6,5,2.6,8.6V36h-18.5c0,3.5,0.9,6.2,2.5,8.1c1.6,1.9,3.9,2.8,6.9,2.8c1.5,0,2.8-0.1,3.9-0.3
		c1.1-0.2,2.5-0.6,4.2-1.3v2.1c-1.5,0.6-2.8,1.1-4,1.3C162.6,48.9,161.3,49,159.8,49z M159.1,24.4c-2.5,0-4.5,0.8-6,2.5
		c-1.5,1.6-2.4,4-2.6,7.1h15.9c0-3-0.6-5.3-1.9-7C163.2,25.3,161.4,24.4,159.1,24.4z"/>
	<path fill="#EA6100" d="M204.8,30.9c0,5.7-1.6,10.1-4.9,13.1c-3.2,3-7.9,4.5-14.1,4.5h-9.8V13.9h10.9c5.6,0,10,1.5,13.2,4.5
		S204.8,25.6,204.8,30.9z M197.1,31.1c0-7.4-3.3-11.2-9.8-11.2h-3.9v22.5h3.1C193.6,42.5,197.1,38.7,197.1,31.1z"/>
	<path fill="#EA6100" d="M228.2,48.6l-1.4-3.6h-0.2c-1.2,1.5-2.5,2.6-3.8,3.2c-1.3,0.6-3,0.9-5,0.9c-2.5,0-4.5-0.7-6-2.2
		c-1.5-1.5-2.2-3.5-2.2-6.2c0-2.8,1-4.9,2.9-6.2c2-1.3,4.9-2.1,8.9-2.2l4.6-0.1v-1.2c0-2.7-1.4-4-4.1-4c-2.1,0-4.6,0.6-7.5,1.9
		l-2.4-4.9c3-1.6,6.4-2.4,10.1-2.4c3.6,0,6.3,0.8,8.2,2.3c1.9,1.5,2.8,3.9,2.8,7.1v17.6H228.2z M226.1,36.3l-2.8,0.1
		c-2.1,0.1-3.7,0.4-4.7,1.1c-1,0.7-1.5,1.8-1.5,3.2c0,2,1.2,3.1,3.5,3.1c1.7,0,3-0.5,4-1.4s1.5-2.2,1.5-3.8V36.3z"/>
	<path fill="#EA6100" d="M251.8,43.3c1.3,0,2.8-0.3,4.5-0.8v5.4c-1.8,0.8-4,1.2-6.6,1.2c-2.9,0-5-0.7-6.3-2.2c-1.3-1.5-2-3.6-2-6.6
		V27.5H238v-3.1l4-2.4l2.1-5.6h4.6v5.6h7.4v5.4h-7.4v12.8c0,1,0.3,1.8,0.9,2.3C250.1,43,250.9,43.3,251.8,43.3z"/>
	<path fill="#EA6100" d="M273.7,49c-4.3,0-7.6-1.2-10-3.5c-2.4-2.4-3.6-5.7-3.6-10c0-4.4,1.1-7.9,3.3-10.3c2.2-2.4,5.3-3.6,9.2-3.6
		c3.7,0,6.7,1.1,8.7,3.2c2.1,2.1,3.1,5.1,3.1,8.8v3.5h-17.1c0.1,2.1,0.7,3.7,1.8,4.8c1.1,1.2,2.7,1.7,4.8,1.7c1.6,0,3.1-0.2,4.5-0.5
		c1.4-0.3,2.9-0.9,4.5-1.6v5.6c-1.3,0.6-2.6,1.1-4,1.4C277.5,48.9,275.8,49,273.7,49z M272.7,26.7c-1.5,0-2.7,0.5-3.6,1.5
		c-0.9,1-1.4,2.3-1.5,4.1h10.1c0-1.8-0.5-3.2-1.4-4.1C275.4,27.2,274.2,26.7,272.7,26.7z"/>
</g>
<path fill="#1E91D6" d="M32,49.9c0.1-0.2,0.2-0.4,0.2-0.6c0-2.4-0.7-4.6-2-6.4c1.7-1.8,4.1-3,6.8-3c2.8,0,5.3,1.2,7,3.2l0.5-0.5
	l0.7-1c-2.1-2.2-4.9-3.5-8.2-3.5c-3.1,0-6,1.3-8,3.4c-2-2.1-4.9-3.4-8-3.4c-3.4,0-6.4,1.5-8.5,3.9l0.5,0.7l0.8,0.9
	c1.7-2.1,4.3-3.5,7.3-3.5c2.7,0,5.1,1.1,6.8,3c-1.2,1.8-2,4-2,6.4c0,0.3,0.1,0.5,0.3,0.7l0.3,0.1l0.8,0c0.3-0.2,0.4-0.5,0.4-0.8
	c0-1.7,0.5-3.3,1.3-4.7c0.8,1.4,1.3,3,1.3,4.7c0,0.3,0.2,0.6,0.4,0.8l0.2,0L32,49.9z"/>
</svg>
