<?xml version="1.0" encoding="utf-8"?>
<!-- Generator: Adobe Illustrator 22.0.1, SVG Export Plug-In . SVG Version: 6.00 Build 0)  -->
<svg version="1.1" id="Layer_1" xmlns="http://www.w3.org/2000/svg" xmlns:xlink="http://www.w3.org/1999/xlink" x="0px" y="0px"
	 viewBox="0 0 234.1 297.1" enable-background="new 0 0 234.1 297.1" xml:space="preserve">
<g>
	<circle fill="#FFFFFF" cx="113.3" cy="117.4" r="86"/>
	<path fill="#1E91D6" d="M148.1,148.1c-14.2,0-25.8-11.5-25.8-25.8s11.5-25.8,25.8-25.8s25.8,11.5,25.8,25.8
		S162.3,148.1,148.1,148.1z M148.1,140.7c10.2,0,18.4-8.2,18.4-18.4s-8.2-18.4-18.4-18.4s-18.4,8.2-18.4,18.4
		S137.9,140.7,148.1,140.7z"/>
	<path fill="#1E91D6" d="M86.6,148.1c-14.2,0-25.8-11.5-25.8-25.8s11.5-25.8,25.8-25.8s25.8,11.5,25.8,25.8S100.9,148.1,86.6,148.1z
		 M86.6,140.7c10.2,0,18.4-8.2,18.4-18.4s-8.2-18.4-18.4-18.4s-18.4,8.2-18.4,18.4S76.5,140.7,86.6,140.7z"/>
	<path fill="#EA6100" d="M193.3,119l-0.4-8.6l-1.4-8.6l-2.4-8.3l-3.4-7.9l-4.7-7.6l-5.1-6.9l-5.7-6.6l-6.7-5.5l-7-4.9l-7.7-4.2
		l-8-3.2l-8.3-2.2l-8.6-1.2l-8.6-0.9l-8.6,0.4L98,44.3l-8.3,2.4l-7.9,3.4l-7.6,4.4l-6.9,5.1l-6.6,5.7L55.3,72l-5.2,7.7l-4.2,7.7
		l-3.2,8l-2.2,8.3l-1.2,8.6l-0.2,8.6l0.4,8.6l1.4,8.6l2.4,8.3l3.4,7.9l4.4,7.6l5.1,6.9l5.7,6.6l6.7,5.5l7,4.9l7.7,4.2l8,3.2l8.3,2.2
		l8.6,1.2l8.6,0.2l8.6-0.4l8.6-1.4l8.3-2.4l7.9-3.4l7.6-4.4l6.9-5.1l6.6-5.7l5.5-6.7l4.9-7l4.2-7.7l3.2-8l2.2-8.3l1.2-8.6L193.3,119
		 M35.5,190.2l-6.4-8.2l-5.4-8.5l-4.8-9.2l-3.8-9.6l-2.8-9.9l-1.8-10.2l-0.8-10.3l0.2-10.3l1.2-10.3l2.2-10.3l3.2-10l3.9-9.7l4.9-9
		l5.9-8.7l6.5-8l7.2-7.4l7.9-6.7l8.5-5.7l9.2-5.1l9.6-4.1l9.9-3.1l10.2-2.1l10.3-1.1l10.3-0.1l10.3,0.9l10.3,1.9l10,2.9L161,22
		l9.3,4.9l8.7,5.5l8,6.5l7.4,7.2l6.7,7.9l6.1,8.5l5.1,8.9l4.1,9.6l3.4,9.9l2.4,10.2l1.5,10.3l0.5,10.3l-0.5,10.3l-1.5,10.3l-2.5,10
		l-3.5,9.7l-4.5,9.3l-5.5,8.7l-6.2,8.4l-81.6,96.4L35.5,190.2"/>
	<path fill="#1E91D6" d="M128.7,195.8c0.5-0.6,0.9-1.4,0.9-2.3c0-9-2.8-17.4-7.6-24.3c6.5-6.9,15.7-11.3,26-11.3
		c10.6,0,20.2,4.7,26.7,12.1l1.7-2l2.8-3.9c-7.8-8.3-18.9-13.5-31.2-13.5c-12,0-22.9,5-30.7,12.9c-7.8-8-18.7-12.9-30.7-12.9
		c-13,0-24.6,5.8-32.5,14.9l1.8,2.5l2.9,3.4c6.5-8.2,16.6-13.4,27.8-13.4c10.3,0,19.5,4.4,26,11.3c-4.8,6.9-7.6,15.3-7.6,24.3
		c0,1.1,0.5,2,1.3,2.7l1.3,0.2l3.1,0.1c1-0.7,1.7-1.7,1.7-3c0-6.6,1.8-12.7,4.9-18c3.1,5.3,4.9,11.4,4.9,18c0,1.2,0.7,2.3,1.6,3
		l0.9,0L128.7,195.8z"/>
</g>
</svg>
